<svg xmlns="http://www.w3.org/2000/svg" viewBox="0 0 16 16" width="100%" height="100%" shape-rendering="crispEdges">
  <path fill="#22c55e" d="M7 2h3v3H7V2z M6 3h1v1H6V3z M10 3h1v1h-1V3z M7 8h3v2H7V8z M8 10h1v2H8v-2z M6 12h1v2H6v-2z M10 12h1v2h-1v-2z"/>
  <path fill="#111827" d="M8 4h1v1H8V4z M7 6h3v1H7V6z M2 7h4v4H2V7z M1 8h1v2H1V8z M6 8h1v2H6V8z M3 11h2v1H3v-1z M3 6h2v1H3V6z"/>
  <path fill="#9ca3af" d="M3 5h1v1H3V5z M4 4h1v1H4V4z"/>
  <path fill="#f59e0b" d="M5 3h1v1H5V3z M4 2h1v1H4V2z M6 2h1v1H6V2z M5 1h1v1H5V1z"/>
</svg>