<svg xmlns="http://www.w3.org/2000/svg" viewBox="0 0 64 64" width="100%" height="100%" shape-rendering="crispEdges">
  <path fill="#111827" d="M4 16h20v16H4z M40 16h20v16H40z M0 24h16v16H0z M48 24h16v16H48z"/>
  <path fill="#1f2937" d="M8 20h12v12H8z M44 20h12v12H44z"/>
  <path fill="#7f1d1d" d="M24 24h16v24H24z M20 32h24v12H20z M28 48h8v12h-8z"/>
  <path fill="#991b1b" d="M26 26h12v16H26z M28 30h8v8h-8z"/>
  <path fill="#111827" d="M22 8h4v12h-4z M38 8h4v12h-4z M20 12h4v8h-4z M40 12h4v8h-4z"/>
  <path fill="#991b1b" d="M26 16h12v12H26z"/>
  <path fill="#ef4444" d="M28 20h2v2h-2z M34 20h2v2h-2z"/>
  <path fill="#f97316" d="M28 20h1v1h-1z M34 20h1v1h-1z"/>
  <path fill="#111827" d="M30 24h4v2h-4z"/>
  <path fill="#ef4444" d="M16 56h32v8H16z M20 52h24v4H20z"/>
  <path fill="#f97316" d="M24 58h16v6H24z"/>
</svg>