<svg xmlns="http://www.w3.org/2000/svg" viewBox="0 0 64 64" width="100%" height="100%" shape-rendering="crispEdges">
  <path fill="#7f1d1d" d="M4 12h16v16H4z M44 12h16v16H44z"/>
  <path fill="#991b1b" d="M8 8h12v12H8z M44 8h12v12H44z M0 20h20v12H0z M44 20h20v12H44z"/>
  <path fill="#450a0a" d="M12 12h2v16h-2z M50 12h2v16h-2z"/>
  <path fill="#b91c1c" d="M24 24h16v28H24z M20 32h24v16H20z M28 52h8v8h-8z"/>
  <path fill="#dc2626" d="M26 26h12v20H26z"/>
  <path fill="#fcd34d" d="M28 30h8v16h-8z"/>
  <path fill="#fbbf24" d="M30 32h4v12h-4z"/>
  <path fill="#f59e0b" d="M24 12h4v8h-4z M36 12h4v8h-4z"/>
  <path fill="#b91c1c" d="M26 16h12v12H26z M22 20h20v8H22z"/>
  <path fill="#fef08a" d="M28 22h2v2h-2z M34 22h2v2h-2z"/>
  <path fill="#000000" d="M29 22h1v2h-1z M35 22h1v2h-1z M30 26h4v2h-4z"/>
  <path fill="#ef4444" d="M30 28h4v8h-4z M28 36h8v8h-8z M26 44h12v12H26z"/>
  <path fill="#f97316" d="M30 32h4v6h-4z M28 38h8v10h-8z"/>
  <path fill="#fef08a" d="M30 40h4v6h-4z"/>
</svg>