<svg xmlns="http://www.w3.org/2000/svg" viewBox="0 0 64 64" width="100%" height="100%" shape-rendering="crispEdges">
  <path fill="#8b5cf6" opacity="0.3" d="M8 8h48v48H8z"/>
  <path fill="#a855f7" opacity="0.5" d="M16 16h32v32H16z"/>
  <path fill="#3b0764" d="M24 16h16v8H24z M20 24h24v12H20z M16 36h32v24H16z"/>
  <path fill="#581c87" d="M22 36h20v24H22z"/>
  <path fill="#7e22ce" d="M26 14h12v4H26z M18 36h6v12h-6z M40 36h6v12h-6z"/>
  <path fill="#e5e7eb" d="M26 22h12v10H26z"/>
  <path fill="#9ca3af" d="M28 32h8v4h-8z"/>
  <path fill="#111827" d="M28 26h2v2h-2z M34 26h2v2h-2z M30 30h4v2h-4z"/>
  <path fill="#06b6d4" d="M28 26h1v1h-1z M34 26h1v1h-1z"/>
  <path fill="#78350f" d="M46 16h4v48h-4z"/>
  <path fill="#22d3ee" d="M44 8h8v8h-8z"/>
  <path fill="#67e8f9" d="M46 10h4v4h-4z"/>
</svg>