<svg xmlns="http://www.w3.org/2000/svg" viewBox="0 0 16 16" width="100%" height="100%" shape-rendering="crispEdges">
  <path fill="#1f2937" d="M6 2h4v4H6V2z M5 5h6v4H5V5z M4 6h1v3H4V6z M11 6h1v3h-1V6z M5 9h6v3H5V9z M5 12h2v3H5v-3z M9 12h2v3H9v-3z"/>
  <path fill="#4b5563" d="M7 3h2v1H7V3z M6 6h4v1H6V6z M6 8h4v1H6V8z M7 10h2v2H7v-2z"/>
  <path fill="#991b1b" d="M7 5h1v1H7V5z M9 5h1v1H9V5z M6 2h1v1H6V2z M9 2h1v1H9V2z"/>
  <path fill="#d1d5db" d="M13 1h1v10h-1V1z M12 2h3v1h-3V2z M12 3h1v1h-1V3z M14 3h1v1h-1V3z M12 11h3v1h-3v-1z"/>
</svg>