<svg xmlns="http://www.w3.org/2000/svg" viewBox="0 0 16 16" width="100%" height="100%" shape-rendering="crispEdges">
  <path fill="#fca5a5" d="M6 3h4v3H6V3z M6 7h4v2H6V7z"/>
  <path fill="#eab308" d="M5 6h1v2H5V6z M4 7h1v2H4V7z M3 8h1v2H3V8z M10 6h1v2h-1V6z M11 7h1v2h-1V7z M12 8h1v2h-1V8z"/>
  <path fill="#c2410c" d="M5 9h6v3H5V9z M7 12h2v3H7v-3z M6 14h1v1H6v-1z M9 14h1v1H9v-1z M5 2h6v1H5V2z M4 3h1v2H4V3z M11 3h1v2h-1V3z"/>
  <path fill="#111827" d="M7 5h1v1H7V5z M9 5h1v1H9V5z M2 9h1v1H2V9z M13 9h1v1h-1V9z"/>
</svg>