<svg xmlns="http://www.w3.org/2000/svg" viewBox="0 0 16 16" width="100%" height="100%" shape-rendering="crispEdges">
  <path fill="#111827" d="M6 6h4v4H6V6z M5 7h1v2H5V7z M10 7h1v2h-1V7z M4 5h1v1H4V5z M3 6h1v1H3V6z M2 7h1v1H2V7z M11 5h1v1h-1V5z M12 6h1v1h-1V6z M13 7h1v1h-1V7z M4 10h1v1H4v-1z M3 9h1v1H3V9z M2 8h1v1H2V8z M11 10h1v1h-1v-1z M12 9h1v1h-1V9z M13 8h1v1h-1V8z M5 10h1v2H5v-2z M10 10h1v2h-1v-2z M4 12h1v2H4v-2z M11 12h1v2h-1v-2z"/>
  <path fill="#dc2626" d="M7 8h1v1H7V8z M9 8h1v1H9V8z"/>
</svg>