<svg xmlns="http://www.w3.org/2000/svg" viewBox="0 0 16 16" width="100%" height="100%" shape-rendering="crispEdges">
  <path fill="#fca5a5" d="M6 3h4v3H6V3z M6 7h4v2H6V7z M5 9h6v3H5V9z M6 12h1v3H6v-3z M9 12h1v3H9v-3z"/>
  <path fill="#a855f7" d="M5 2h2v1H5V2z M9 2h2v1H9V2z M3 6h2v1H3V6z M2 7h2v1H2V7z M11 6h2v1h-2V6z M12 7h2v1h-2V7z M4 10h1v1H4v-1z M11 10h1v1h-1v-1z"/>
  <path fill="#111827" d="M6 8h4v1H6V8z M5 3h1v3H5V3z M10 3h1v3h-1V3z"/>
  <path fill="#ec4899" d="M7 5h1v1H7V5z M9 5h1v1H9V5z M7 10h2v1H7v-1z"/>
</svg>